<svg id="_bookmark-on-white" data-name="ðŸ“bookmark-on-white" xmlns="http://www.w3.org/2000/svg" width="48" height="48" viewBox="0 0 48 48">
  <rect id="Rectangle_5619" data-name="Rectangle 5619" width="48" height="48" rx="24" opacity="0"/>
  <path id="Path_4391" data-name="Path 4391" d="M6.143,23a1.168,1.168,0,0,1-.56-.144A1.106,1.106,0,0,1,5,21.889V5.589A2.565,2.565,0,0,1,7.514,3H18.485A2.565,2.565,0,0,1,21,5.589v16.3a1.106,1.106,0,0,1-.571.956,1.171,1.171,0,0,1-1.143,0l-6.479-3.567L6.714,22.833A1.166,1.166,0,0,1,6.143,23Z" transform="translate(11 11)" fill="#178038"/>
  <path id="Path_4478" data-name="Path 4478" d="M8.778,15.042l-1.844-2.1a.952.952,0,0,1,0-1.233l.054-.061a.719.719,0,0,1,1.1,0l1.247,1.417,3.99-4.512a.719.719,0,0,1,1.1,0l.054.061a.952.952,0,0,1,0,1.233L9.894,15.042A.736.736,0,0,1,8.778,15.042Z" transform="translate(13.292 11.703)" fill="#fff"/>
</svg>
