<svg id="ic-back-non-hover-48" xmlns="http://www.w3.org/2000/svg" width="48" height="48" viewBox="0 0 48 48">
  <rect id="Rectangle_5513" data-name="Rectangle 5513" width="48" height="48" rx="24" fill="#f6f6f7" opacity="0"/>
  <g id="ic-back-non-hover-24">
    <rect id="Rectangle_5213" data-name="Rectangle 5213" width="24" height="24" transform="translate(12 12)" fill="#fff" opacity="0"/>
    <path id="Path_2936" data-name="Path 2936" d="M23.134,13.1H8.8l6.263-6.432a1.354,1.354,0,0,0,0-1.871,1.255,1.255,0,0,0-1.81,0L4.793,13.478a1.338,1.338,0,0,0,0,1.858l8.458,8.685a1.255,1.255,0,0,0,1.81,0,1.338,1.338,0,0,0,0-1.858L8.8,15.732H23.134a1.318,1.318,0,0,0,0-2.636Z" transform="translate(9.583 9.593)" fill="#fff"/>
  </g>
</svg>
