<svg id="bookmark-off-white" xmlns="http://www.w3.org/2000/svg" width="48" height="48" viewBox="0 0 48 48">
  <rect id="Rectangle_5619" data-name="Rectangle 5619" width="48" height="48" rx="24" opacity="0"/>
  <g id="Path_4535" data-name="Path 4535" transform="translate(11 11)" fill="none">
    <path d="M6.143,23a1.168,1.168,0,0,1-.56-.144A1.106,1.106,0,0,1,5,21.889V5.589A2.565,2.565,0,0,1,7.514,3H18.485A2.565,2.565,0,0,1,21,5.589v16.3a1.106,1.106,0,0,1-.571.956,1.171,1.171,0,0,1-1.143,0l-6.479-3.567L6.714,22.833A1.166,1.166,0,0,1,6.143,23Z" stroke="none"/>
    <path d="M 18.49873924255371 19.55813217163086 L 18.49921417236328 5.539153575897217 C 18.4913387298584 5.529175758361816 18.46816253662109 5.506193161010742 18.41838836669922 5.500003337860107 L 7.580429553985596 5.500003337860107 C 7.530662536621094 5.506195545196533 7.507479667663574 5.529179096221924 7.499608516693115 5.539151191711426 L 7.500088691711426 5.588893413543701 L 7.500088691711426 19.47981071472168 L 12.76894855499268 16.40413284301758 L 18.49873924255371 19.55813217163086 M 6.142848491668701 23.00000381469727 C 5.946528911590576 22.99942398071289 5.753688812255859 22.94967269897461 5.582888603210449 22.85555267333984 C 5.223508834838867 22.65914344787598 5.00079870223999 22.28974342346191 5.000088691711426 21.88889312744141 L 5.000088691711426 5.588893413543701 C 4.967938899993896 4.202273368835449 6.08854866027832 3.04831337928772 7.514158725738525 3.000003337860107 L 18.48465919494629 3.000003337860107 C 19.91026878356934 3.04831337928772 21.0308780670166 4.202273368835449 20.99873924255371 5.588893413543701 L 20.99873924255371 21.88889312744141 C 20.99628829956055 22.28346252441406 20.77879905700684 22.64716339111328 20.42734909057617 22.84444427490234 C 20.07378005981445 23.04292297363281 19.63816070556641 23.04292297363281 19.28458786010742 22.84444427490234 L 12.80513858795166 19.27778434753418 L 6.714228630065918 22.83333396911621 C 6.542298793792725 22.93709373474121 6.345118522644043 22.99461364746094 6.142848491668701 23.00000381469727 Z" stroke="none" fill="#666"/>
  </g>
</svg>
