<svg xmlns="http://www.w3.org/2000/svg" xmlns:xlink="http://www.w3.org/1999/xlink" width="112" height="24" viewBox="0 0 112 24">
  <defs>
    <clipPath id="clip-path">
      <circle id="Ellipse_216" data-name="Ellipse 216" cx="12" cy="12" r="12" fill="none"/>
    </clipPath>
    <linearGradient id="linear-gradient" x1="-0.021" y1="0.511" x2="0.979" y2="0.511" gradientUnits="objectBoundingBox">
      <stop offset="0" stop-color="#3b6ab3"/>
      <stop offset="0.04" stop-color="#3176bc"/>
      <stop offset="0.15" stop-color="#1f8ece"/>
      <stop offset="0.26" stop-color="#11a0dc"/>
      <stop offset="0.41" stop-color="#07ade6"/>
      <stop offset="0.59" stop-color="#02b4eb"/>
      <stop offset="1" stop-color="#00b6ed"/>
    </linearGradient>
    <linearGradient id="linear-gradient-2" x1="0.028" y1="0.71" x2="0.922" y2="0.246" gradientUnits="objectBoundingBox">
      <stop offset="0" stop-color="#00d8f1"/>
      <stop offset="0.27" stop-color="#4b98be"/>
      <stop offset="0.53" stop-color="#8b6293"/>
      <stop offset="0.74" stop-color="#ba3a73"/>
      <stop offset="0.91" stop-color="#d62260"/>
      <stop offset="1" stop-color="#e11959"/>
    </linearGradient>
  </defs>
  <g id="ic-logo-dkonsul" transform="translate(-254 -130.908)">
    <g id="DKonsul_Logo-FA" data-name="DKonsul Logo-FA" transform="translate(285.783 134.969)">
      <g id="Group_8370" data-name="Group 8370" transform="translate(0)">
        <path id="Path_4397" data-name="Path 4397" d="M213.7,94.34h5.768c4.862,0,8.219,3.337,8.219,7.69v.045c0,4.353-3.36,7.735-8.219,7.735H213.7Zm2.717,2.476v10.519h3.049a5.041,5.041,0,0,0,5.369-5.215v-.045a5.075,5.075,0,0,0-5.369-5.259Z" transform="translate(-213.7 -93.679)" fill="#ee1064"/>
        <path id="Path_4398" data-name="Path 4398" d="M277.95,94.34h2.719v7.777l7.358-7.777h3.36l-6.451,6.652,6.739,8.818H288.36l-5.282-6.96-2.409,2.476v4.485H277.95Z" transform="translate(-261.996 -93.679)" fill="#0090f2"/>
        <path id="Path_4399" data-name="Path 4399" d="M330.72,114.813v-.045a6.222,6.222,0,0,1,12.441-.045v.045a6.1,6.1,0,0,1-6.253,6.076A6.032,6.032,0,0,1,330.72,114.813Zm9.766,0v-.045a3.606,3.606,0,0,0-3.581-3.757,3.5,3.5,0,0,0-3.514,3.712v.045a3.6,3.6,0,0,0,3.558,3.735A3.5,3.5,0,0,0,340.486,114.813Z" transform="translate(-301.662 -104.451)" fill="#0090f2"/>
        <path id="Path_4400" data-name="Path 4400" d="M386.423,108.913H389.1v1.79a4.232,4.232,0,0,1,3.645-2.034c2.63,0,4.154,1.768,4.154,4.465v7.447h-2.674v-6.63c0-1.813-.906-2.851-2.5-2.851a2.6,2.6,0,0,0-2.63,2.9v6.585H386.42V108.913Z" transform="translate(-343.53 -104.451)" fill="#0090f2"/>
        <path id="Path_4401" data-name="Path 4401" d="M432.44,119.192l1.194-1.813a6.592,6.592,0,0,0,3.822,1.435c1.15,0,1.813-.487,1.813-1.259v-.045c0-.906-1.237-1.214-2.607-1.634-1.723-.487-3.645-1.194-3.645-3.424v-.045c0-2.21,1.835-3.558,4.154-3.558a8.091,8.091,0,0,1,4.286,1.326l-1.06,1.9a6.765,6.765,0,0,0-3.293-1.105c-1.038,0-1.634.487-1.634,1.15v.045c0,.862,1.259,1.214,2.63,1.656,1.7.531,3.623,1.3,3.623,3.4v.045c0,2.453-1.9,3.668-4.331,3.668A8.173,8.173,0,0,1,432.44,119.192Z" transform="translate(-378.123 -104.586)" fill="#0090f2"/>
        <path id="Path_4402" data-name="Path 4402" d="M474.98,117.075V109.65h2.674v6.63c0,1.813.906,2.828,2.5,2.828a2.577,2.577,0,0,0,2.63-2.873V109.65h2.7v11.669h-2.7v-1.813a4.2,4.2,0,0,1-3.645,2.056C476.5,121.562,474.98,119.794,474.98,117.075Z" transform="translate(-410.099 -105.188)" fill="#0090f2"/>
        <path id="Path_4403" data-name="Path 4403" d="M525.97,91.68h2.674v16.131H525.97Z" transform="translate(-448.427 -91.68)" fill="#0090f2"/>
      </g>
    </g>
    <g id="Home_on_24" transform="translate(254 130.908)">
      <rect id="placeholder" width="24" height="24" rx="12" transform="translate(0 0)" fill="#fff" opacity="0"/>
      <g id="Home-on">
        <rect id="placeholder-2" data-name="placeholder" width="24" height="24" rx="12" transform="translate(0 0)" fill="#fff" opacity="0"/>
        <g id="logo-02" clip-path="url(#clip-path)">
          <circle id="Ellipse_215" data-name="Ellipse 215" cx="12.093" cy="12.093" r="12.093" transform="translate(-0.222 0.013) rotate(-0.5)" fill="url(#linear-gradient)"/>
          <path id="Path_1811" data-name="Path 1811" d="M253.654,99.2A12.1,12.1,0,0,0,241.475,87.18a14.624,14.624,0,0,0-6.948,2.219c.151.044-1.251.841-1.9,1.778-.714,1.034-.679,2.212-.457,2.171,1.417-.259,2.678-.441,3.8-.557q.961-.1,1.787-.137c11.9-.541,3.612,8.176,3.612,8.176s-6.009,6.567-5.475,9.072a11.976,11.976,0,0,0,5.583,1.319C248.19,110.836,253.654,105.84,253.654,99.2Z" transform="translate(-229.585 -87.234)" opacity="0.76" fill="url(#linear-gradient-2)"/>
          <g id="Group_2767" data-name="Group 2767" transform="translate(10.945 -0.093)" opacity="0.44">
            <path id="Path_1812" data-name="Path 1812" d="M725.746,84.9c-.312,0-.62.021-.926.047a12.089,12.089,0,0,1,.21,24.107c.306.021.615.033.926.031a12.093,12.093,0,0,0-.211-24.185Z" transform="translate(-724.82 -84.903)" fill="#ea2565"/>
          </g>
          <g id="Group_2768" data-name="Group 2768" transform="translate(-0.09 -0.066)" opacity="0.76">
            <path id="Path_1813" data-name="Path 1813" d="M85.123,98.671c0,.312.021.62.047.926.419-6.25,5.492-9.908,11.859-9.963s11.721,3.512,12.249,9.753c.021-.306.033-.614.031-.926a12.093,12.093,0,1,0-24.185.211Z" transform="translate(-85.123 -86.473)" fill="#ea2565"/>
          </g>
          <g id="Group_2769" data-name="Group 2769" transform="translate(-0.113 -0.094)" opacity="0.61">
            <path id="Path_1814" data-name="Path 1814" d="M95.992,109.074c.312,0,.62-.021.926-.047a12.089,12.089,0,0,1-.211-24.107c-.306-.021-.614-.033-.926-.031a12.093,12.093,0,1,0,.211,24.185Z" transform="translate(-83.793 -84.889)" fill="#00f9f9"/>
          </g>
          <g id="Group_2770" data-name="Group 2770" transform="translate(-0.068 10.97)" opacity="0.39">
            <path id="Path_1815" data-name="Path 1815" d="M110.534,727.2c0-.312-.021-.62-.047-.926a12.089,12.089,0,0,1-24.107.21c-.021.306-.033.615-.031.926a12.093,12.093,0,1,0,24.185-.211Z" transform="translate(-86.349 -726.27)" fill="#fff"/>
          </g>
          <g id="Group_2771" data-name="Group 2771" transform="translate(10.931 -0.093)" opacity="0.23">
            <path id="Path_1816" data-name="Path 1816" d="M724.94,84.9a3.367,3.367,0,0,0-.677.116c5.924.736,10.952,5.741,11.005,11.874.055,6.295-5.128,11.523-11.268,12.151q.569.049,1.151.045A12.093,12.093,0,1,0,724.94,84.9Z" transform="translate(-724 -84.903)" fill="#ff97c6"/>
          </g>
          <path id="Path_1817" data-name="Path 1817" d="M968.3,1137.044a.433.433,0,1,0,.505.345A.424.424,0,0,0,968.3,1137.044Z" transform="translate(-952.812 -1118.981)" fill="#fff"/>
          <path id="Path_1818" data-name="Path 1818" d="M503.043,491.255a.989.989,0,0,0-1.568.666.076.076,0,0,1-.028.055c-.849.017-5.179.089-6.237,0-.35-.031-.795-.143-.928-.5-.141-.382-.053-1.352,2.122-3.566,3.033-3.088,4.185-5.19,3.52-6.425-.86-1.6-4.513-1.113-4.678-1.1v.414h0V488.6c-1.124,1.32-1.568,2.326-1.319,3,.112.3.419.678,1.251.751.178.016.441.022.759.022,1.7-.026,4.933-.038,5.55-.048.015.009.023.028.037.069a.988.988,0,0,0,1.28.593,1,1,0,0,0,.24-1.732Zm-.53,1.46a.663.663,0,1,1-.113-1.321.663.663,0,0,1,.113,1.321Z" transform="translate(-486.898 -473.572)" fill="#fff"/>
          <path id="Path_1819" data-name="Path 1819" d="M493.635,392.576a.433.433,0,0,0,.148.854.433.433,0,1,0-.147-.853Z" transform="translate(-486.324 -387.357)" fill="#fff"/>
          <path id="Path_1820" data-name="Path 1820" d="M469.441,362.588c-.475-.943-1.525-1.512-3.123-1.692a12.8,12.8,0,0,0-1.84-.036c-.267.007-.563.014-.9.019v0c-.029,0-.057-.047-.076-.1a.988.988,0,0,0-1.27-.615.994.994,0,1,0,1.31,1.089.324.324,0,0,1,.031-.117c.343,0,.642-.012.912-.019a12.733,12.733,0,0,1,1.805.034c1.518.17,2.506.7,2.935,1.572a2.27,2.27,0,0,1,.1.235.03.03,0,0,0,0,.009c.006.012.01.025.015.037a3.715,3.715,0,0,1-.072,2.193,11.186,11.186,0,0,1-1.559,2.7c-.575.718-1.355,1.688-2.053,2.555-.5.612-1.06,1.286-1.462,1.751a.289.289,0,0,0,.219.479h2.641c.343,0,.958-.069.94-.066a5.149,5.149,0,0,0,4.8-5.178v-.03A5.018,5.018,0,0,0,469.441,362.588Zm-6.835-.827a.663.663,0,0,1-.09-1.323.663.663,0,1,1,.09,1.323Z" transform="translate(-455.164 -355.448)" fill="#fff"/>
        </g>
      </g>
    </g>
  </g>
</svg>
