<svg xmlns="http://www.w3.org/2000/svg" width="16" height="16" viewBox="0 0 16 16">
  <g id="ic-checklist-sent-14" transform="translate(-24 -302)">
    <g id="ic-user-tele-24" transform="translate(20 294)">
      <path id="Path_4394" data-name="Path 4394" d="M0,0H16V16H0Z" transform="translate(4 8)" fill="rgba(0,0,0,0)"/>
      <path id="Path_6152" data-name="Path 6152" d="M11.116,6.187a.622.622,0,0,0-.881,0L6.713,9.71l.881.881,3.523-3.529A.626.626,0,0,0,11.116,6.187Zm2.648-.006L7.593,12.352,5.42,10.184a.623.623,0,1,0-.881.881L7.15,13.676a.622.622,0,0,0,.881,0l6.614-6.608a.622.622,0,0,0,0-.881h-.006a.609.609,0,0,0-.874-.006ZM1.01,11.071l2.611,2.611a.622.622,0,0,0,.881,0l.437-.437-3.048-3.06a.622.622,0,0,0-.881,0,.63.63,0,0,0,0,.887Z" transform="translate(4.172 6.506)" fill="#666"/>
    </g>
  </g>
</svg>
