<svg xmlns="http://www.w3.org/2000/svg" width="40" height="40" viewBox="0 0 40 40">
  <g id="ic-file-40" transform="translate(70 52)">
    <g id="Group_30160" data-name="Group 30160" transform="translate(-70 -52)">
      <g id="ic-list-pasien-on-24">
        <g id="poll-24px">
          <path id="Rectangle_5893" data-name="Rectangle 5893" d="M12,0h4A24,24,0,0,1,40,24v4A12,12,0,0,1,28,40H12A12,12,0,0,1,0,28V12A12,12,0,0,1,12,0Z" fill="#666"/>
          <path id="Intersection_6" data-name="Intersection 6" d="M1.836,29.109a12.1,12.1,0,0,1-1.822-.137A33.36,33.36,0,0,1,25.881-.093a23.886,23.886,0,0,1,3.954,13.2v4a12,12,0,0,1-12,12Z" transform="translate(10.165 10.891)" fill="#989898"/>
          <g id="Group_30517" data-name="Group 30517" transform="translate(14.999 26.666)">
            <rect id="Rectangle_6295" data-name="Rectangle 6295" width="16.667" height="6.667" rx="3.333" transform="translate(0)" fill="#212121"/>
          </g>
          <g id="Group_30518" data-name="Group 30518" transform="translate(11.667 11.667)">
            <rect id="Rectangle_6295-2" data-name="Rectangle 6295" width="8.333" height="6.667" rx="3.333" fill="#212121"/>
          </g>
          <rect id="Rectangle_6294" data-name="Rectangle 6294" width="18.333" height="6.667" rx="3.333" transform="translate(8.333 23.333)" fill="#fff"/>
          <rect id="Rectangle_6296" data-name="Rectangle 6296" width="8.333" height="6.667" rx="3.333" transform="translate(8.333 8.333)" fill="#fff"/>
          <g id="Polygon_10" data-name="Polygon 10" transform="translate(31.305 18.608) rotate(-140)" fill="#212121">
            <path d="M 11.4650182723999 10.90015888214111 L 1.868518114089966 10.90015888214111 C 1.16648805141449 10.90015888214111 0.5245880484580994 10.51564884185791 0.1933280676603317 9.896678924560547 C -0.137921929359436 9.277719497680664 -0.1017919257283211 8.530348777770996 0.2876280844211578 7.946218967437744 L 5.085867881774902 0.7488490343093872 C 5.439058303833008 0.2190690487623215 6.03004789352417 -0.09722094982862473 6.666768074035645 -0.09722094982862473 C 7.303488254547119 -0.09722094982862473 7.894477844238281 0.2190690487623215 8.247668266296387 0.7488590478897095 L 13.04591846466064 7.946228981018066 C 13.43532848358154 8.530348777770996 13.47145843505859 9.277719497680664 13.14020824432373 9.896678924560547 C 12.8089485168457 10.51564884185791 12.16704845428467 10.90015888214111 11.4650182723999 10.90015888214111 Z" stroke="none"/>
            <path d="M 6.666768074035645 0.8027744293212891 C 6.349698066711426 0.8027744293212891 6.032628059387207 0.9512090682983398 5.834718227386475 1.248079299926758 L 1.036468505859375 8.445459365844727 C 0.5934276580810547 9.11000919342041 1.069818496704102 10.00015926361084 1.868517875671387 10.00015926361084 L 11.4650182723999 10.00015926361084 C 12.26371765136719 10.00015926361084 12.74010848999023 9.11000919342041 12.29706764221191 8.445459365844727 L 7.498817920684814 1.248079299926758 C 7.300908088684082 0.9512090682983398 6.983838081359863 0.8027744293212891 6.666768074035645 0.8027744293212891 M 6.666768074035645 -0.9972305297851562 C 7.605098247528076 -0.9972305297851562 8.476028442382812 -0.5311107635498047 8.996518135070801 0.249629020690918 L 13.79475784301758 7.446999073028564 C 14.36863803863525 8.307799339294434 14.42187786102295 9.409189224243164 13.93371772766113 10.32134914398193 C 13.44554805755615 11.2335090637207 12.49959850311279 11.8001594543457 11.4650182723999 11.8001594543457 L 1.868517875671387 11.8001594543457 C 0.8339376449584961 11.8001594543457 -0.1120119094848633 11.2335090637207 -0.6001815795898438 10.32134914398193 C -1.08834171295166 9.409189224243164 -1.035101890563965 8.307799339294434 -0.461212158203125 7.446989059448242 L 4.337028503417969 0.2496194839477539 C 4.857507705688477 -0.5311107635498047 5.728437900543213 -0.9972305297851562 6.666768074035645 -0.9972305297851562 Z" stroke="none" fill="#fff"/>
          </g>
        </g>
      </g>
    </g>
  </g>
</svg>
