<svg xmlns="http://www.w3.org/2000/svg" width="24.511" height="24.553" viewBox="0 0 24.511 24.553">
  <g id="ic-list-pasien-on-24" transform="translate(0 0.552)">
    <g id="poll-24px">
      <path id="Rectangle_5893" data-name="Rectangle 5893" d="M6,0H9A15,15,0,0,1,24,15v3a6,6,0,0,1-6,6H6a6,6,0,0,1-6-6V6A6,6,0,0,1,6,0Z" fill="#0771cd"/>
      <path id="Intersection_6" data-name="Intersection 6" d="M2.074,19A20.015,20.015,0,0,1,17.36,1.535,14.929,14.929,0,0,1,19.976,10v3a6,6,0,0,1-6,6Z" transform="translate(4.025 5)" fill="#3aa0f0"/>
      <g id="Group_30517" data-name="Group 30517" transform="translate(8.654 16)">
        <rect id="Rectangle_6295" data-name="Rectangle 6295" width="10" height="4" rx="2" transform="translate(0.346)" fill="#00429c"/>
      </g>
      <g id="Group_30518" data-name="Group 30518" transform="translate(6.568 7)">
        <rect id="Rectangle_6295-2" data-name="Rectangle 6295" width="5" height="4" rx="2" transform="translate(0.433)" fill="#00429c"/>
      </g>
      <rect id="Rectangle_6294" data-name="Rectangle 6294" width="11" height="4" rx="2" transform="translate(5 14)" fill="#fff"/>
      <rect id="Rectangle_6296" data-name="Rectangle 6296" width="5" height="4" rx="2" transform="translate(5 5)" fill="#fff"/>
      <g id="Polygon_10" data-name="Polygon 10" transform="translate(18.783 11.165) rotate(-140)" fill="#00429c">
        <path d="M 6.131656646728516 6.900137424468994 L 1.868516802787781 6.900137424468994 C 1.166486740112305 6.900137424468994 0.5245968103408813 6.515627384185791 0.1933367848396301 5.89666748046875 C -0.1379232108592987 5.277697563171387 -0.1017932146787643 4.530327796936035 0.2876167893409729 3.946197509765625 L 2.419196844100952 0.7488476037979126 C 2.772376775741577 0.2190676033496857 3.363366842269897 -0.09722239524126053 4.000086784362793 -0.09722239524126053 C 4.636806964874268 -0.09722239524126053 5.22779655456543 0.2190676033496857 5.580986976623535 0.7488476037979126 L 7.712546825408936 3.946197509765625 C 8.101966857910156 4.530327796936035 8.138096809387207 5.277697563171387 7.806836605072021 5.89666748046875 C 7.475576877593994 6.515627384185791 6.833686828613281 6.900137424468994 6.131656646728516 6.900137424468994 Z" stroke="none"/>
        <path d="M 4.000086784362793 0.8027725219726562 C 3.683016777038574 0.8027725219726562 3.365946769714355 0.9512076377868652 3.168036937713623 1.248077392578125 L 1.036466598510742 4.445427894592285 C 0.5934267044067383 5.109987735748291 1.069816589355469 6.000127792358398 1.86851692199707 6.000127792358398 L 6.131656646728516 6.000127792358398 C 6.930356979370117 6.000127792358398 7.406746864318848 5.109987735748291 6.963706970214844 4.445427894592285 L 4.832137107849121 1.248077392578125 C 4.63422679901123 0.9512076377868652 4.317156791687012 0.8027725219726562 4.000086784362793 0.8027725219726562 M 4.000086784362793 -0.9972324371337891 C 4.938416481018066 -0.9972324371337891 5.809346675872803 -0.5311121940612793 6.329836845397949 0.2496275901794434 L 8.461397171020508 3.446967601776123 C 9.035276412963867 4.307787895202637 9.088517189025879 5.409177780151367 8.600346565246582 6.321327686309814 C 8.112176895141602 7.233487606048584 7.166226863861084 7.800127506256104 6.131656646728516 7.800127506256104 L 1.86851692199707 7.800127506256104 C 0.833946704864502 7.800127506256104 -0.1120033264160156 7.233487606048584 -0.6001729965209961 6.321327686309814 C -1.088343620300293 5.409177780151367 -1.035102844238281 4.307787895202637 -0.4612236022949219 3.446967601776123 L 1.670346736907959 0.2496175765991211 C 2.190826892852783 -0.5311121940612793 3.061756610870361 -0.9972324371337891 4.000086784362793 -0.9972324371337891 Z" stroke="none" fill="#fff"/>
      </g>
    </g>
  </g>
</svg>
