<svg id="KEMENKES" xmlns="http://www.w3.org/2000/svg" width="105" height="48" viewBox="0 0 105 48">
  <g id="layer1" transform="translate(0 0)">
    <g id="g909" transform="translate(0 0)">
      <path id="path911" d="M100.942-136.267a.6.6,0,0,1,.624-.622.591.591,0,0,1,.626.622v1.821l2.052-2.207a.649.649,0,0,1,.483-.236.611.611,0,0,1,.618.606c0,.219-.134.4-.409.675l-1.576,1.565,1.926,2.03a.926.926,0,0,1,.351.641.582.582,0,0,1-.651.581c-.241,0-.4-.142-.634-.4l-2.16-2.357v2.147a.6.6,0,0,1-.626.606.586.586,0,0,1-.624-.606Z" transform="translate(-48.579 144.682)" fill="#231916"/>
      <path id="path913" d="M109.5-136.076c0-.422.208-.735.65-.735h2.068a.559.559,0,0,1,.593.581.569.569,0,0,1-.593.583h-1.467v1.23h1.367a.566.566,0,0,1,.609.582.577.577,0,0,1-.609.581h-1.367v1.281H112.3a.558.558,0,0,1,.592.58.567.567,0,0,1-.592.581h-2.153a.611.611,0,0,1-.641-.632Z" transform="translate(-51.838 144.653)" fill="#231916"/>
      <path id="path915" d="M116.575-136.241a.841.841,0,0,1,.817-.648.892.892,0,0,1,.835.606l.983,3.336h.018l.983-3.336a.891.891,0,0,1,.834-.606.84.84,0,0,1,.818.648l.775,4.7a.754.754,0,0,1,.009.142.58.58,0,0,1-.6.606c-.426,0-.593-.193-.652-.589l-.491-3.428h-.016l-1,3.529a.635.635,0,0,1-.667.489.634.634,0,0,1-.666-.489l-1-3.529h-.016l-.492,3.428c-.059.4-.225.589-.65.589a.58.58,0,0,1-.6-.606.875.875,0,0,1,.008-.142Z" transform="translate(-54.231 144.682)" fill="#231916"/>
      <path id="path917" d="M128.123-136.076c0-.422.209-.735.651-.735h2.069a.558.558,0,0,1,.592.581.569.569,0,0,1-.592.583h-1.468v1.23h1.368a.567.567,0,0,1,.609.582.577.577,0,0,1-.609.581h-1.368v1.281h1.543a.557.557,0,0,1,.592.58.566.566,0,0,1-.592.581h-2.152a.612.612,0,0,1-.643-.632Z" transform="translate(-58.924 144.653)" fill="#231916"/>
      <path id="path919" d="M134.612-136.231a.6.6,0,0,1,.626-.658.774.774,0,0,1,.526.278l2.644,3.563h.017v-3.183a.6.6,0,0,1,.624-.658.6.6,0,0,1,.627.658v4.784a.6.6,0,0,1-.627.656.8.8,0,0,1-.525-.276l-2.644-3.522h-.016v3.142a.6.6,0,0,1-.625.656.6.6,0,0,1-.626-.656Z" transform="translate(-61.394 144.682)" fill="#231916"/>
      <path id="path921" d="M144.963-135.647h-.909a.543.543,0,0,1-.567-.583.562.562,0,0,1,.567-.581h3.069a.562.562,0,0,1,.568.581.544.544,0,0,1-.568.583h-.909v4.229a.6.6,0,0,1-.627.655.6.6,0,0,1-.624-.655Z" transform="translate(-64.772 144.653)" fill="#231916"/>
      <path id="path923" d="M151.053-136.076c0-.422.208-.735.651-.735h2.067a.558.558,0,0,1,.592.581.569.569,0,0,1-.592.583H152.3v1.23h1.368a.567.567,0,0,1,.609.582.578.578,0,0,1-.609.581H152.3v1.281h1.543a.557.557,0,0,1,.592.58.566.566,0,0,1-.592.581h-2.152a.611.611,0,0,1-.642-.632Z" transform="translate(-67.651 144.653)" fill="#231916"/>
      <path id="path925" d="M158.875-134.155h.858a.715.715,0,0,0,.777-.751.7.7,0,0,0-.777-.741h-.858Zm-1.251-2a.594.594,0,0,1,.642-.658h1.467c1.286,0,2.078.581,2.078,1.9a1.629,1.629,0,0,1-1.543,1.593l1.417,1.532a.545.545,0,0,1,.167.37.642.642,0,0,1-.626.649.635.635,0,0,1-.483-.22l-1.852-2.263h-.016v1.828a.6.6,0,0,1-.626.656.6.6,0,0,1-.625-.656Z" transform="translate(-70.152 144.653)" fill="#231916"/>
      <path id="path927" d="M165.444-136.231a.6.6,0,0,1,.626-.657.6.6,0,0,1,.624.657v4.784a.6.6,0,0,1-.624.656.6.6,0,0,1-.626-.656Z" transform="translate(-73.129 144.682)" fill="#231916"/>
      <path id="path929" d="M170.26-133.213h1.585l-.776-2.445h-.016Zm-.091-3.059a.983.983,0,0,1,.892-.7.949.949,0,0,1,.893.7l1.635,4.582a1.023,1.023,0,0,1,.066.311.558.558,0,0,1-.576.556.584.584,0,0,1-.609-.439l-.251-.79H169.9l-.25.784a.58.58,0,0,1-.6.445.6.6,0,0,1-.617-.589.726.726,0,0,1,.058-.278Z" transform="translate(-74.267 144.713)" fill="#231916"/>
      <path id="path931" d="M177.75-136.231a.6.6,0,0,1,.626-.657.77.77,0,0,1,.525.277l2.644,3.563h.018v-3.183a.6.6,0,0,1,.625-.657.6.6,0,0,1,.625.657v4.784a.6.6,0,0,1-.625.656.8.8,0,0,1-.525-.276l-2.645-3.522H179v3.142a.6.6,0,0,1-.625.656.6.6,0,0,1-.626-.656Z" transform="translate(-77.813 144.682)" fill="#231916"/>
      <path id="path933" d="M100.942-122.429a.6.6,0,0,1,.624-.622.591.591,0,0,1,.626.622v1.82l2.052-2.206a.65.65,0,0,1,.483-.236.608.608,0,0,1,.618.606c0,.218-.134.4-.409.674l-1.576,1.566,1.926,2.03a.922.922,0,0,1,.351.641.583.583,0,0,1-.651.58c-.241,0-.4-.143-.634-.4l-2.16-2.358v2.15a.6.6,0,0,1-.626.6.586.586,0,0,1-.624-.6Z" transform="translate(-48.579 139.501)" fill="#231916"/>
      <path id="path935" d="M109.5-122.24c0-.419.208-.732.65-.732h2.068a.559.559,0,0,1,.593.581.568.568,0,0,1-.593.581h-1.467v1.231h1.367a.566.566,0,0,1,.609.58.576.576,0,0,1-.609.581h-1.367v1.281H112.3a.558.558,0,0,1,.592.581.568.568,0,0,1-.592.583h-2.153a.612.612,0,0,1-.641-.632Z" transform="translate(-51.838 139.471)" fill="#231916"/>
      <path id="path937" d="M119.452-122.29a.582.582,0,0,1-.558.623c-.344,0-.609-.253-1.11-.253-.358,0-.683.2-.683.547,0,.866,2.786.311,2.786,2.485a1.991,1.991,0,0,1-2.135,1.955c-.643,0-2.027-.154-2.027-.943a.56.56,0,0,1,.559-.6c.393,0,.86.328,1.4.328s.851-.31.851-.726c0-.993-2.786-.395-2.786-2.348a1.937,1.937,0,0,1,2.068-1.913c.468,0,1.635.176,1.635.843" transform="translate(-54.205 139.531)" fill="#231916"/>
      <path id="path939" d="M123.641-122.24c0-.419.209-.732.65-.732h2.069a.557.557,0,0,1,.591.581.567.567,0,0,1-.591.581h-1.468v1.231h1.368a.566.566,0,0,1,.607.58.576.576,0,0,1-.607.581h-1.368v1.281h1.542a.558.558,0,0,1,.592.581.568.568,0,0,1-.592.583h-2.152a.612.612,0,0,1-.642-.632Z" transform="translate(-57.218 139.471)" fill="#231916"/>
      <path id="path941" d="M130.21-122.4a.6.6,0,0,1,.626-.654.6.6,0,0,1,.626.654v1.788h2.618V-122.4a.6.6,0,0,1,.625-.654.6.6,0,0,1,.626.654v4.787a.6.6,0,0,1-.626.656.6.6,0,0,1-.625-.656v-1.837h-2.618v1.837a.6.6,0,0,1-.626.656.6.6,0,0,1-.626-.656Z" transform="translate(-59.719 139.501)" fill="#231916"/>
      <path id="path943" d="M141.272-119.376h1.585l-.776-2.443h-.017Zm-.091-3.058a.983.983,0,0,1,.893-.7.943.943,0,0,1,.892.7l1.636,4.582a.986.986,0,0,1,.066.313.557.557,0,0,1-.575.555.585.585,0,0,1-.609-.437l-.25-.793h-2.319l-.251.782a.578.578,0,0,1-.6.447.6.6,0,0,1-.618-.589.745.745,0,0,1,.058-.279Z" transform="translate(-63.234 139.531)" fill="#231916"/>
      <path id="path945" d="M148.318-121.81h-.909a.541.541,0,0,1-.567-.581.562.562,0,0,1,.567-.581h3.07a.563.563,0,0,1,.567.581.542.542,0,0,1-.567.581h-.91v4.229a.6.6,0,0,1-.627.657.6.6,0,0,1-.624-.657Z" transform="translate(-66.048 139.471)" fill="#231916"/>
      <path id="path947" d="M154.419-119.376H156l-.775-2.443h-.017Zm-.091-3.058a.982.982,0,0,1,.893-.7.943.943,0,0,1,.892.7l1.635,4.582a.99.99,0,0,1,.066.313.557.557,0,0,1-.575.555.584.584,0,0,1-.608-.437l-.25-.793H154.06l-.25.782a.581.581,0,0,1-.6.447.6.6,0,0,1-.619-.589.727.727,0,0,1,.059-.279Z" transform="translate(-68.237 139.531)" fill="#231916"/>
      <path id="path949" d="M161.909-122.4a.6.6,0,0,1,.625-.654.767.767,0,0,1,.526.277l2.644,3.564h.017V-122.4a.6.6,0,0,1,.626-.654.6.6,0,0,1,.625.654v4.787a.6.6,0,0,1-.625.656.8.8,0,0,1-.526-.276l-2.643-3.522h-.017v3.142a.6.6,0,0,1-.626.656.6.6,0,0,1-.625-.656Z" transform="translate(-71.783 139.501)" fill="#231916"/>
      <path id="path951" d="M102.192-106.482h.86a.712.712,0,0,0,.775-.748.7.7,0,0,0-.775-.741h-.86Zm-1.25-2a.594.594,0,0,1,.641-.656h1.469c1.284,0,2.076.582,2.076,1.9a1.627,1.627,0,0,1-1.542,1.592L105-104.107a.548.548,0,0,1,.167.37.643.643,0,0,1-.626.651.644.644,0,0,1-.483-.221l-1.852-2.266h-.017v1.827a.6.6,0,0,1-.626.659.6.6,0,0,1-.624-.659Z" transform="translate(-48.579 134.29)" fill="#231916"/>
      <path id="path953" d="M108.763-108.4c0-.42.209-.732.651-.732h2.069a.558.558,0,0,1,.592.582.568.568,0,0,1-.592.582h-1.468v1.23h1.368a.566.566,0,0,1,.609.581.577.577,0,0,1-.609.581h-1.368v1.279h1.543a.559.559,0,0,1,.592.582.567.567,0,0,1-.592.581h-2.152a.611.611,0,0,1-.642-.629Z" transform="translate(-51.556 134.29)" fill="#231916"/>
      <path id="path955" d="M116.584-106.237h.852a.838.838,0,0,0,.859-.893.838.838,0,0,0-.859-.894h-.852Zm-1.251-2.242a.6.6,0,0,1,.652-.656h1.475a1.993,1.993,0,0,1,2.135,2.014,1.968,1.968,0,0,1-2.085,2h-.927v1.381a.6.6,0,0,1-.625.659.6.6,0,0,1-.626-.659Z" transform="translate(-54.056 134.29)" fill="#231916"/>
      <path id="path957" d="M123.075-108.555a.6.6,0,0,1,.626-.659.6.6,0,0,1,.626.659v2.938a1.284,1.284,0,0,0,1.284,1.388,1.317,1.317,0,0,0,1.277-1.388v-2.938a.6.6,0,0,1,.624-.659.6.6,0,0,1,.626.659v3a2.492,2.492,0,0,1-2.528,2.484,2.477,2.477,0,0,1-2.535-2.484Z" transform="translate(-57.003 134.32)" fill="#231916"/>
      <path id="path959" d="M133.966-104.25h.984a.711.711,0,0,0,.784-.733c0-.393-.3-.665-.884-.665h-.884Zm0-2.51h.65a.621.621,0,0,0,.675-.667.6.6,0,0,0-.675-.6h-.65Zm-1.252-1.744a.6.6,0,0,1,.66-.632h1.6a1.481,1.481,0,0,1,1.569,1.484,1.244,1.244,0,0,1-.775,1.236v.016a1.464,1.464,0,0,1,1.267,1.433,1.738,1.738,0,0,1-1.934,1.828h-1.719a.621.621,0,0,1-.668-.641Z" transform="translate(-60.672 134.29)" fill="#231916"/>
      <path id="path961" d="M140.779-108.555a.6.6,0,0,1,.626-.659.6.6,0,0,1,.626.659v4.225h1.484a.57.57,0,0,1,.6.607.585.585,0,0,1-.6.556H141.43a.621.621,0,0,1-.651-.69Z" transform="translate(-63.741 134.32)" fill="#231916"/>
      <path id="path963" d="M146.851-108.555a.6.6,0,0,1,.625-.659.6.6,0,0,1,.627.659v4.781a.6.6,0,0,1-.627.659.6.6,0,0,1-.625-.659Z" transform="translate(-66.052 134.32)" fill="#231916"/>
      <path id="path965" d="M150.42-108.592a.606.606,0,0,1,.626-.623.591.591,0,0,1,.625.623v1.82l2.051-2.208a.657.657,0,0,1,.485-.235.609.609,0,0,1,.617.6c0,.219-.134.4-.409.674l-1.576,1.567,1.926,2.032a.917.917,0,0,1,.35.639.584.584,0,0,1-.65.583c-.242,0-.4-.143-.634-.4l-2.161-2.36v2.148a.6.6,0,0,1-.625.609.59.59,0,0,1-.626-.609Z" transform="translate(-67.411 134.32)" fill="#231916"/>
      <path id="path967" d="M100.942-94.721a.6.6,0,0,1,.624-.655.6.6,0,0,1,.626.655v4.783a.6.6,0,0,1-.626.659.6.6,0,0,1-.624-.659Z" transform="translate(-48.579 129.138)" fill="#231916"/>
      <path id="path969" d="M104.428-94.721a.6.6,0,0,1,.626-.655.772.772,0,0,1,.524.276l2.646,3.565h.016v-3.185a.6.6,0,0,1,.626-.655.6.6,0,0,1,.625.655v4.783a.6.6,0,0,1-.625.659.8.8,0,0,1-.525-.279L105.7-93.078h-.017v3.141a.6.6,0,0,1-.625.659.6.6,0,0,1-.626-.659Z" transform="translate(-49.906 129.138)" fill="#231916"/>
      <path id="path971" d="M115.318-90.463h.843c1.075,0,1.568-.8,1.568-1.809,0-1.081-.5-1.863-1.651-1.863h-.759Zm-1.251-4.186a.617.617,0,0,1,.643-.649h1.383a2.782,2.782,0,0,1,2.936,3.084,2.71,2.71,0,0,1-2.853,2.914h-1.452a.613.613,0,0,1-.659-.632Z" transform="translate(-53.575 129.109)" fill="#231916"/>
      <path id="path973" d="M127.445-92.361c0-1.02-.527-1.939-1.568-1.939s-1.569.918-1.569,1.939.509,1.938,1.569,1.938S127.445-91.333,127.445-92.361Zm-4.438,0a2.9,2.9,0,0,1,2.87-3.1,2.936,2.936,0,0,1,2.869,3.1,2.9,2.9,0,0,1-2.869,3.1,2.905,2.905,0,0,1-2.87-3.1" transform="translate(-56.977 129.171)" fill="#231916"/>
      <path id="path975" d="M133.36-94.721a.6.6,0,0,1,.626-.655.778.778,0,0,1,.525.276l2.644,3.565h.016v-3.185a.6.6,0,0,1,.626-.655.6.6,0,0,1,.627.655v4.783a.6.6,0,0,1-.627.659.791.791,0,0,1-.525-.279l-2.645-3.521h-.016v3.141a.6.6,0,0,1-.626.659.6.6,0,0,1-.626-.659Z" transform="translate(-60.917 129.138)" fill="#231916"/>
      <path id="path977" d="M143-94.564c0-.423.21-.734.651-.734h2.068a.558.558,0,0,1,.592.581.566.566,0,0,1-.592.582h-1.467v1.229h1.366a.567.567,0,0,1,.609.58.576.576,0,0,1-.609.582h-1.366v1.28h1.542a.558.558,0,0,1,.592.582.566.566,0,0,1-.592.581h-2.151a.612.612,0,0,1-.643-.632Z" transform="translate(-64.586 129.109)" fill="#231916"/>
      <path id="path979" d="M152.949-94.617a.58.58,0,0,1-.559.621c-.341,0-.608-.252-1.108-.252-.359,0-.685.193-.685.548,0,.868,2.786.312,2.786,2.484a1.989,1.989,0,0,1-2.136,1.955c-.641,0-2.026-.152-2.026-.945a.558.558,0,0,1,.559-.6c.391,0,.859.327,1.4.327s.852-.31.852-.722c0-.994-2.787-.4-2.787-2.351a1.938,1.938,0,0,1,2.069-1.915c.468,0,1.635.179,1.635.845" transform="translate(-66.954 129.171)" fill="#231916"/>
      <path id="path981" d="M157.138-94.721a.6.6,0,0,1,.624-.655.6.6,0,0,1,.627.655v4.783a.6.6,0,0,1-.627.659.6.6,0,0,1-.624-.659Z" transform="translate(-69.967 129.138)" fill="#231916"/>
      <path id="path983" d="M161.953-91.7h1.585l-.775-2.442h-.017Zm-.091-3.056a.985.985,0,0,1,.892-.7.947.947,0,0,1,.893.7l1.634,4.58a1,1,0,0,1,.067.314.559.559,0,0,1-.574.556.585.585,0,0,1-.609-.44l-.252-.789h-2.318l-.251.783a.58.58,0,0,1-.6.446.6.6,0,0,1-.618-.59.731.731,0,0,1,.059-.279Z" transform="translate(-71.105 129.171)" fill="#231916"/>
      <path id="path985" d="M78.472-104.645a7.063,7.063,0,0,1,2.048,5.008,7.077,7.077,0,0,1-2.045,5.012,6.927,6.927,0,0,1-4.963,2.071,6.95,6.95,0,0,1-4.96-2.067l-.035-.034v-14.938h4.766Z" transform="translate(-36.238 134.461)" fill="#d2dc00"/>
      <path id="path987" d="M57.681-93.948l.033.03a7.632,7.632,0,0,1-7.568,7.632,7.593,7.593,0,0,1-7.509-6.737v-16.1L55.624-96.029Z" transform="translate(-26.388 134.286)" fill="#00b1a9"/>
      <path id="path989" d="M58.242-109.591V-96.3l-13.18-13.293Z" transform="translate(-27.31 134.461)" fill="#d2dc00"/>
      <path id="path991" d="M31.248-123.192v15.28H23.966a7.634,7.634,0,0,1-7.563-7.644,7.628,7.628,0,0,1,7.563-7.636Z" transform="translate(-16.403 139.554)" fill="#00b1a9"/>
      <path id="path993" d="M78.455-137.406a7.113,7.113,0,0,1,2.049,5.042,7.04,7.04,0,0,1-2.04,4.984l-5.182,4.954H68.517v-14.957l.013-.013a6.934,6.934,0,0,1,4.969-2.073,6.942,6.942,0,0,1,4.957,2.063" transform="translate(-36.238 145.648)" fill="#d2dc00"/>
      <path id="path995" d="M58.256-133.5v13.31H45.1Z" transform="translate(-27.324 143.415)" fill="#d2dc00"/>
      <path id="path997" d="M57.714-141.988v.345l-.033.031L42.638-126.676v-15.932a7.591,7.591,0,0,1,7.509-6.739h0a7.394,7.394,0,0,1,7.565,7.359" transform="translate(-26.388 149.347)" fill="#00b1a9"/>
    </g>
  </g>
</svg>
