<svg xmlns="http://www.w3.org/2000/svg" width="24" height="24" viewBox="0 0 24 24">
  <g id="ic-resep-tidak-berlaku-24" transform="translate(-15 3)">
    <rect id="Rectangle_6022" data-name="Rectangle 6022" width="24" height="24" transform="translate(15 -3)" fill="#666" opacity="0"/>
    <g id="Group_31066" data-name="Group 31066">
      <path id="Subtraction_11" data-name="Subtraction 11" d="M19819.141-12950.86h-8a5.957,5.957,0,0,1-3.471-1.105l16.363-16.368a5.977,5.977,0,0,1,1.109,3.478v8A6.007,6.007,0,0,1,19819.141-12950.86Zm-12.893-2.523h0a5.969,5.969,0,0,1-1.109-3.476v-8a6.007,6.007,0,0,1,6-6h8a5.964,5.964,0,0,1,3.475,1.107l-16.367,16.364Z" transform="translate(-19788.141 12969.859)" fill="#b00020"/>
      <path id="Path_6127" data-name="Path 6127" d="M3.458-2.275H2.206V.517H.635V-7.109H3.469a3.2,3.2,0,0,1,2.085.6,2.079,2.079,0,0,1,.733,1.7,2.346,2.346,0,0,1-.338,1.3,2.3,2.3,0,0,1-1.024.83L6.575.444V.517H4.888ZM2.206-3.547H3.474a1.3,1.3,0,0,0,.917-.3,1.077,1.077,0,0,0,.325-.83,1.152,1.152,0,0,0-.306-.849,1.274,1.274,0,0,0-.94-.309H2.206Zm7.434.089.953-1.692h1.619L10.6-2.374,12.281.517H10.657L9.646-1.264,8.64.517H7.011L8.692-2.374,7.084-5.15H8.708Z" transform="translate(21.438 13.128)" fill="#820e45"/>
      <path id="Path_6126" data-name="Path 6126" d="M3.458-2.275H2.206V.517H.635V-7.109H3.469a3.2,3.2,0,0,1,2.085.6,2.079,2.079,0,0,1,.733,1.7,2.346,2.346,0,0,1-.338,1.3,2.3,2.3,0,0,1-1.024.83L6.575.444V.517H4.888ZM2.206-3.547H3.474a1.3,1.3,0,0,0,.917-.3,1.077,1.077,0,0,0,.325-.83,1.152,1.152,0,0,0-.306-.849,1.274,1.274,0,0,0-.94-.309H2.206Zm7.434.089.953-1.692h1.619L10.6-2.374,12.281.517H10.657L9.646-1.264,8.64.517H7.011L8.692-2.374,7.084-5.15H8.708Z" transform="translate(20.365 12.055)" fill="#fff"/>
    </g>
  </g>
</svg>
