<svg xmlns="http://www.w3.org/2000/svg" width="24" height="24" viewBox="0 0 24 24">
  <g id="ic-resep-berlaku-24" transform="translate(-15 3)">
    <rect id="Rectangle_6022" data-name="Rectangle 6022" width="24" height="24" transform="translate(15 -3)" fill="#666" opacity="0"/>
    <g id="Group_30160" data-name="Group 30160" transform="translate(-2 -2)">
      <rect id="Rectangle_6014" data-name="Rectangle 6014" width="20" height="20" rx="6" transform="translate(19 1)" fill="#0771cd"/>
      <path id="Intersection_1" data-name="Intersection 1" d="M1,15a6.042,6.042,0,0,1-1-.083A15,15,0,0,1,14.917,0,6.04,6.04,0,0,1,15,1V9a6,6,0,0,1-6,6Z" transform="translate(24 6)" fill="#5fb0f2"/>
    </g>
    <path id="Path_6127" data-name="Path 6127" d="M3.458-2.275H2.206V.517H.635V-7.109H3.469a3.2,3.2,0,0,1,2.085.6,2.079,2.079,0,0,1,.733,1.7,2.346,2.346,0,0,1-.338,1.3,2.3,2.3,0,0,1-1.024.83L6.575.444V.517H4.888ZM2.206-3.547H3.474a1.3,1.3,0,0,0,.917-.3,1.077,1.077,0,0,0,.325-.83,1.152,1.152,0,0,0-.306-.849,1.274,1.274,0,0,0-.94-.309H2.206Zm7.434.089.953-1.692h1.619L10.6-2.374,12.281.517H10.657L9.646-1.264,8.64.517H7.011L8.692-2.374,7.084-5.15H8.708Z" transform="translate(21.438 13.128)" fill="#00429c"/>
    <path id="Path_6126" data-name="Path 6126" d="M3.458-2.275H2.206V.517H.635V-7.109H3.469a3.2,3.2,0,0,1,2.085.6,2.079,2.079,0,0,1,.733,1.7,2.346,2.346,0,0,1-.338,1.3,2.3,2.3,0,0,1-1.024.83L6.575.444V.517H4.888ZM2.206-3.547H3.474a1.3,1.3,0,0,0,.917-.3,1.077,1.077,0,0,0,.325-.83,1.152,1.152,0,0,0-.306-.849,1.274,1.274,0,0,0-.94-.309H2.206Zm7.434.089.953-1.692h1.619L10.6-2.374,12.281.517H10.657L9.646-1.264,8.64.517H7.011L8.692-2.374,7.084-5.15H8.708Z" transform="translate(20.365 12.055)" fill="#fff"/>
  </g>
</svg>
